<svg width="512" height="512" viewBox="0 0 512 512" fill="none" xmlns="http://www.w3.org/2000/svg">
<path d="M255.292 0C112.719 0 0 113.196 0 255.304C0 385.598 93.7125 491.672 218.269 509.382V385.268C190.126 376.747 165.485 359.37 148.01 335.721C130.535 312.071 121.16 283.413 121.279 254.007C121.279 179.628 181.223 115.884 256 115.884C329.338 115.884 390.743 179.557 390.743 254.007C390.747 269.977 387.937 285.823 382.443 300.819L328.748 247.923L245.223 334.164L295.639 384.56L387.23 476.178L423.073 512L509.31 425.782L473.938 390.927C498.982 350.136 512.162 303.171 511.998 255.304C511.998 113.055 398.525 0 255.292 0Z" fill="#FF387F"/>
</svg>
